<svg width="140" height="49" viewBox="0 0 140 49" fill="none" xmlns="http://www.w3.org/2000/svg">
<path d="M21.8901 11H0V17H21.8901V11Z" fill="#FCFBFD"/>
<path d="M21.8901 31H0V37H21.8901V31Z" fill="#FCFBFD"/>
<path d="M18.2418 21H0V27H18.2418V21Z" fill="#FCFBFD"/>
<path d="M27.47 37V9.64H32.334V37H27.47ZM46.462 37.456C44.562 37.456 42.8773 37.0507 41.408 36.24C39.9387 35.4293 38.786 34.2893 37.95 32.82C37.114 31.3507 36.696 29.6533 36.696 27.728C36.696 25.7773 37.1013 24.042 37.912 22.522C38.748 21.002 39.888 19.824 41.332 18.988C42.8013 18.1267 44.524 17.696 46.5 17.696C48.3493 17.696 49.9833 18.1013 51.402 18.912C52.8207 19.7227 53.9227 20.8373 54.708 22.256C55.5187 23.6493 55.924 25.2073 55.924 26.93C55.924 27.2087 55.9113 27.5 55.886 27.804C55.886 28.108 55.8733 28.4247 55.848 28.754H41.522C41.6233 30.2233 42.13 31.376 43.042 32.212C43.9793 33.048 45.1067 33.466 46.424 33.466C47.412 33.466 48.2353 33.2507 48.894 32.82C49.578 32.364 50.0847 31.7813 50.414 31.072H55.354C54.9993 32.2627 54.404 33.352 53.568 34.34C52.7573 35.3027 51.744 36.0627 50.528 36.62C49.3373 37.1773 47.982 37.456 46.462 37.456ZM46.5 21.648C45.3093 21.648 44.258 21.99 43.346 22.674C42.434 23.3327 41.8513 24.346 41.598 25.714H50.984C50.908 24.4727 50.452 23.4847 49.616 22.75C48.78 22.0153 47.7413 21.648 46.5 21.648ZM67.5867 31.376C66.6747 31.376 65.8261 31.2747 65.0407 31.072L63.6347 32.478C64.0654 32.706 64.6481 32.896 65.3827 33.048C66.1174 33.2 67.3081 33.352 68.9547 33.504C71.4627 33.732 73.2867 34.3273 74.4267 35.29C75.5667 36.2527 76.1367 37.5827 76.1367 39.28C76.1367 40.3947 75.8327 41.446 75.2247 42.434C74.6167 43.4473 73.6794 44.258 72.4127 44.866C71.1461 45.4993 69.5247 45.816 67.5487 45.816C64.8634 45.816 62.6974 45.3093 61.0507 44.296C59.4041 43.308 58.5807 41.8133 58.5807 39.812C58.5807 38.1147 59.4041 36.6453 61.0507 35.404C60.5441 35.176 60.1007 34.9353 59.7207 34.682C59.3661 34.4287 59.0494 34.1627 58.7707 33.884V33.01L62.0767 29.514C60.6074 28.222 59.8727 26.5627 59.8727 24.536C59.8727 23.2693 60.1767 22.1167 60.7847 21.078C61.4181 20.0393 62.3047 19.216 63.4447 18.608C64.5847 18 65.9654 17.696 67.5867 17.696C68.6507 17.696 69.6387 17.848 70.5507 18.152H77.6947V21.116L74.4647 21.344C74.9714 22.3067 75.2247 23.3707 75.2247 24.536C75.2247 25.8027 74.9207 26.9553 74.3127 27.994C73.7047 29.0327 72.8181 29.856 71.6527 30.464C70.5127 31.072 69.1574 31.376 67.5867 31.376ZM67.5867 27.652C68.5747 27.652 69.3854 27.386 70.0187 26.854C70.6774 26.322 71.0067 25.562 71.0067 24.574C71.0067 23.586 70.6774 22.826 70.0187 22.294C69.3854 21.762 68.5747 21.496 67.5867 21.496C66.5481 21.496 65.7121 21.762 65.0787 22.294C64.4454 22.826 64.1287 23.586 64.1287 24.574C64.1287 25.562 64.4454 26.322 65.0787 26.854C65.7121 27.386 66.5481 27.652 67.5867 27.652ZM63.0267 39.318C63.0267 40.2553 63.4574 40.952 64.3187 41.408C65.2054 41.8893 66.2821 42.13 67.5487 42.13C68.7647 42.13 69.7527 41.8767 70.5127 41.37C71.2727 40.8887 71.6527 40.23 71.6527 39.394C71.6527 38.71 71.3994 38.14 70.8927 37.684C70.4114 37.228 69.4361 36.9493 67.9667 36.848C66.9281 36.772 65.9654 36.658 65.0787 36.506C64.3441 36.9113 63.8121 37.3547 63.4827 37.836C63.1787 38.3173 63.0267 38.8113 63.0267 39.318ZM87.7395 37.456C86.1182 37.456 84.7882 37.2027 83.7495 36.696C82.7108 36.164 81.9382 35.4673 81.4315 34.606C80.9248 33.7447 80.6715 32.7947 80.6715 31.756C80.6715 30.008 81.3555 28.5893 82.7235 27.5C84.0915 26.4107 86.1435 25.866 88.8795 25.866H93.6675V25.41C93.6675 24.118 93.3002 23.168 92.5655 22.56C91.8308 21.952 90.9188 21.648 89.8295 21.648C88.8415 21.648 87.9802 21.8887 87.2455 22.37C86.5108 22.826 86.0548 23.51 85.8775 24.422H81.1275C81.2542 23.054 81.7102 21.8633 82.4955 20.85C83.3062 19.8367 84.3448 19.064 85.6115 18.532C86.8782 17.9747 88.2968 17.696 89.8675 17.696C92.5528 17.696 94.6682 18.3673 96.2135 19.71C97.7588 21.0527 98.5315 22.9527 98.5315 25.41V37H94.3895L93.9335 33.96C93.3762 34.9733 92.5908 35.8093 91.5775 36.468C90.5895 37.1267 89.3102 37.456 87.7395 37.456ZM88.8415 33.656C90.2348 33.656 91.3115 33.2 92.0715 32.288C92.8568 31.376 93.3508 30.2487 93.5535 28.906H89.4115C88.1195 28.906 87.1948 29.1467 86.6375 29.628C86.0802 30.084 85.8015 30.654 85.8015 31.338C85.8015 32.0727 86.0802 32.6427 86.6375 33.048C87.1948 33.4533 87.9295 33.656 88.8415 33.656ZM103.173 37V18.152H107.467L107.847 21.344C108.43 20.2293 109.266 19.3427 110.355 18.684C111.47 18.0253 112.774 17.696 114.269 17.696C116.6 17.696 118.411 18.4307 119.703 19.9C120.995 21.3693 121.641 23.5227 121.641 26.36V37H116.777V26.816C116.777 25.1947 116.448 23.9533 115.789 23.092C115.13 22.2307 114.104 21.8 112.711 21.8C111.343 21.8 110.216 22.2813 109.329 23.244C108.468 24.2067 108.037 25.5493 108.037 27.272V37H103.173ZM134.69 37C132.714 37 131.131 36.5187 129.94 35.556C128.75 34.5933 128.154 32.8833 128.154 30.426V22.218H124.924V18.152H128.154L128.724 13.098H133.018V18.152H138.11V22.218H133.018V30.464C133.018 31.376 133.208 32.0093 133.588 32.364C133.994 32.6933 134.678 32.858 135.64 32.858H137.996V37H134.69Z" fill="#FCFBFD"/>
</svg>